# Blender 4.0.2
# www.blender.org
mtllib varoom.mtl
o varoom
v -0.419199 0.199880 -0.900000
v -0.519199 -0.100000 -0.900000
v -0.419199 -0.100000 -0.900000
v -0.519199 0.199880 -0.900000
v -0.419199 0.199880 -0.900000
v -0.519199 0.199880 -1.000000
v -0.519199 0.199880 -0.900000
v 0.480801 0.199880 -1.000000
v -0.419199 0.199880 -0.500000
v 0.380801 0.199880 -0.900000
v 0.380801 0.199880 -0.500000
v 0.480801 0.199880 -0.900000
v -0.519199 0.199880 -0.900000
v -0.519199 -0.100000 -1.000000
v -0.519199 -0.100000 -0.900000
v -0.519199 0.199880 -1.000000
v -0.419199 -0.100000 0.900000
v -0.519199 -0.100000 1.000000
v -0.519199 -0.100000 0.900000
v 0.480801 -0.100000 1.000000
v 0.380801 -0.100000 0.900000
v 0.380801 -0.100000 0.500000
v 0.480801 -0.100000 0.900000
v -0.419199 -0.100000 -0.500000
v -0.519199 -0.100000 0.500000
v -0.519199 -0.100000 -0.500000
v -0.419199 -0.100000 0.500000
v -0.519199 -0.100000 -1.000000
v -0.419199 -0.100000 -0.900000
v -0.519199 -0.100000 -0.900000
v 0.480801 -0.100000 -1.000000
v 0.380801 -0.100000 -0.900000
v 0.480801 -0.100000 -0.900000
v 0.380801 -0.100000 -0.500000
v 0.480801 -0.100000 0.500000
v 0.480801 -0.100000 -0.500000
v -0.419199 0.199880 -0.500000
v -0.419199 -0.100000 -0.900000
v -0.419199 -0.100000 -0.500000
v -0.419199 0.199880 -0.900000
v 0.480801 0.000000 0.000000
v -0.519199 0.199880 -0.500000
v -0.519199 0.000000 0.000000
v -0.419199 0.199880 -0.500000
v 0.380801 0.199880 -0.500000
v 0.480801 0.199880 -0.500000
v 0.380801 -0.100000 -0.900000
v 0.380801 0.199880 -0.500000
v 0.380801 -0.100000 -0.500000
v 0.380801 0.199880 -0.900000
v 0.480801 0.199880 -0.900000
v 0.380801 -0.100000 -0.900000
v 0.480801 -0.100000 -0.900000
v 0.380801 0.199880 -0.900000
v 0.480801 -0.100000 -1.000000
v 0.480801 0.199880 -0.900000
v 0.480801 -0.100000 -0.900000
v 0.480801 0.199880 -1.000000
v -0.519199 -0.100000 -1.000000
v 0.480801 0.199880 -1.000000
v 0.480801 -0.100000 -1.000000
v -0.519199 0.199880 -1.000000
v 0.380801 0.199880 -0.500000
v 0.480801 -0.100000 -0.500000
v 0.380801 -0.100000 -0.500000
v 0.480801 0.199880 -0.500000
v 0.480801 -0.100000 -0.500000
v 0.480801 0.000000 0.500000
v 0.480801 -0.100000 0.500000
v 0.480801 0.000000 0.000000
v 0.480801 0.199880 -0.500000
v 0.480801 0.000000 0.500000
v 0.380801 -0.100000 0.500000
v 0.480801 -0.100000 0.500000
v 0.380801 0.000000 0.500000
v 0.380801 -0.100000 0.500000
v 0.380801 0.000000 0.900000
v 0.380801 -0.100000 0.900000
v 0.380801 0.000000 0.500000
v 0.380801 0.000000 0.900000
v 0.480801 -0.100000 0.900000
v 0.380801 -0.100000 0.900000
v 0.480801 0.000000 0.900000
v 0.480801 -0.100000 0.900000
v 0.480801 0.000000 1.000000
v 0.480801 -0.100000 1.000000
v 0.480801 0.000000 0.900000
v 0.480801 0.000000 1.000000
v -0.519199 -0.100000 1.000000
v 0.480801 -0.100000 1.000000
v -0.519199 0.000000 1.000000
v -0.519199 0.000000 1.000000
v -0.519199 -0.100000 0.900000
v -0.519199 -0.100000 1.000000
v -0.519199 0.000000 0.900000
v -0.519199 -0.100000 0.900000
v -0.419199 0.000000 0.900000
v -0.419199 -0.100000 0.900000
v -0.519199 0.000000 0.900000
v -0.419199 0.000000 0.900000
v -0.419199 -0.100000 0.500000
v -0.419199 -0.100000 0.900000
v -0.419199 0.000000 0.500000
v -0.419199 0.000000 0.500000
v -0.519199 -0.100000 0.500000
v -0.419199 -0.100000 0.500000
v -0.519199 0.000000 0.500000
v -0.519199 0.000000 0.500000
v -0.519199 -0.100000 -0.500000
v -0.519199 -0.100000 0.500000
v -0.519199 0.000000 0.000000
v -0.519199 0.199880 -0.500000
v -0.519199 -0.100000 -0.500000
v -0.419199 0.199880 -0.500000
v -0.419199 -0.100000 -0.500000
v -0.519199 0.199880 -0.500000
v 0.480801 0.000000 1.000000
v -0.519199 0.000000 0.900000
v -0.519199 0.000000 1.000000
v -0.419199 0.000000 0.900000
v -0.419199 0.000000 0.500000
v 0.380801 0.000000 0.900000
v 0.480801 0.000000 0.900000
v -0.519199 0.000000 0.000000
v -0.519199 0.000000 0.500000
v 0.480801 0.000000 0.000000
v 0.380801 0.000000 0.500000
v 0.480801 0.000000 0.500000
v -0.469199 0.100000 0.850000
v -0.569199 -0.200000 0.850000
v -0.469199 -0.200000 0.850000
v -0.569199 0.100000 0.850000
v -0.569199 -0.200000 0.550000
v -0.469199 -0.200000 0.850000
v -0.569199 -0.200000 0.850000
v -0.469199 -0.200000 0.550000
v -0.469199 -0.200000 0.550000
v -0.469199 0.100000 0.850000
v -0.469199 -0.200000 0.850000
v -0.469199 0.100000 0.550000
v -0.469199 0.100000 0.850000
v -0.569199 0.100000 0.550000
v -0.569199 0.100000 0.850000
v -0.469199 0.100000 0.550000
v -0.569199 0.100000 0.550000
v -0.569199 -0.200000 0.850000
v -0.569199 0.100000 0.850000
v -0.569199 -0.200000 0.550000
v -0.569199 0.100000 0.550000
v -0.469199 -0.200000 0.550000
v -0.569199 -0.200000 0.550000
v -0.469199 0.100000 0.550000
v 0.530801 -0.200000 0.550000
v 0.530801 0.100000 0.850000
v 0.530801 -0.200000 0.850000
v 0.530801 0.100000 0.550000
v 0.430801 -0.200000 0.550000
v 0.530801 -0.200000 0.850000
v 0.430801 -0.200000 0.850000
v 0.530801 -0.200000 0.550000
v 0.430801 0.100000 0.550000
v 0.530801 -0.200000 0.550000
v 0.430801 -0.200000 0.550000
v 0.530801 0.100000 0.550000
v 0.530801 0.100000 0.850000
v 0.430801 0.100000 0.550000
v 0.430801 0.100000 0.850000
v 0.530801 0.100000 0.550000
v 0.530801 0.100000 0.850000
v 0.430801 -0.200000 0.850000
v 0.530801 -0.200000 0.850000
v 0.430801 0.100000 0.850000
v 0.430801 0.100000 0.550000
v 0.430801 -0.200000 0.850000
v 0.430801 0.100000 0.850000
v 0.430801 -0.200000 0.550000
v 0.530801 -0.200000 -0.850000
v 0.530801 0.100000 -0.550000
v 0.530801 -0.200000 -0.550000
v 0.530801 0.100000 -0.850000
v 0.430801 -0.200000 -0.850000
v 0.530801 -0.200000 -0.550000
v 0.430801 -0.200000 -0.550000
v 0.530801 -0.200000 -0.850000
v 0.430801 0.100000 -0.850000
v 0.530801 -0.200000 -0.850000
v 0.430801 -0.200000 -0.850000
v 0.530801 0.100000 -0.850000
v 0.530801 0.100000 -0.550000
v 0.430801 0.100000 -0.850000
v 0.430801 0.100000 -0.550000
v 0.530801 0.100000 -0.850000
v 0.530801 0.100000 -0.550000
v 0.430801 -0.200000 -0.550000
v 0.530801 -0.200000 -0.550000
v 0.430801 0.100000 -0.550000
v 0.430801 0.100000 -0.850000
v 0.430801 -0.200000 -0.550000
v 0.430801 0.100000 -0.550000
v 0.430801 -0.200000 -0.850000
v -0.569199 -0.200000 -0.850000
v -0.469199 -0.200000 -0.550000
v -0.569199 -0.200000 -0.550000
v -0.469199 -0.200000 -0.850000
v -0.569199 0.100000 -0.850000
v -0.569199 -0.200000 -0.550000
v -0.569199 0.100000 -0.550000
v -0.569199 -0.200000 -0.850000
v -0.569199 0.100000 -0.850000
v -0.469199 -0.200000 -0.850000
v -0.569199 -0.200000 -0.850000
v -0.469199 0.100000 -0.850000
v -0.469199 -0.200000 -0.850000
v -0.469199 0.100000 -0.550000
v -0.469199 -0.200000 -0.550000
v -0.469199 0.100000 -0.850000
v -0.469199 0.100000 -0.550000
v -0.569199 -0.200000 -0.550000
v -0.469199 -0.200000 -0.550000
v -0.569199 0.100000 -0.550000
v -0.469199 0.100000 -0.550000
v -0.569199 0.100000 -0.850000
v -0.569199 0.100000 -0.550000
v -0.469199 0.100000 -0.850000
vn -0.0000 -0.0000 1.0000
vn -0.0000 1.0000 -0.0000
vn -1.0000 -0.0000 -0.0000
vn -0.0000 -1.0000 -0.0000
vn -0.0000 0.9286 0.3712
vn 1.0000 -0.0000 -0.0000
vn -0.0000 -0.0000 -1.0000
vt 0.722951 0.712116
vt 0.705407 0.659507
vt 0.722951 0.659507
vt 0.705407 0.712116
vt 0.817717 0.501317
vt 0.800174 0.483773
vt 0.817717 0.483773
vt 0.800174 0.659207
vt 0.887890 0.501317
vt 0.817717 0.641664
vt 0.887890 0.641664
vt 0.817717 0.659207
vt 0.688014 0.711483
vt 0.670470 0.658874
vt 0.688014 0.658874
vt 0.670470 0.711483
vt 0.687581 0.325566
vt 0.705108 0.308040
vt 0.705108 0.325566
vt 0.529840 0.308040
vt 0.547367 0.325566
vt 0.547367 0.395673
vt 0.529840 0.325566
vt 0.687581 0.570940
vt 0.705108 0.395673
vt 0.705108 0.570940
vt 0.687581 0.395673
vt 0.705108 0.658574
vt 0.687581 0.641047
vt 0.705108 0.641047
vt 0.529840 0.658574
vt 0.547367 0.641047
vt 0.529840 0.641047
vt 0.546493 0.570944
vt 0.529840 0.395586
vt 0.528966 0.570856
vt 0.581575 0.658874
vt 0.528966 0.729048
vt 0.528966 0.658874
vt 0.581575 0.729048
vt 0.799874 0.659207
vt 0.705407 0.483773
vt 0.799874 0.483773
vt 0.705407 0.501317
vt 0.705407 0.641664
vt 0.705407 0.659207
vt 0.634484 0.729048
vt 0.581875 0.658874
vt 0.634484 0.658874
vt 0.581875 0.729048
vt 0.776481 0.712116
vt 0.758937 0.659507
vt 0.776481 0.659507
vt 0.758937 0.712116
vt 0.794324 0.659507
vt 0.776781 0.712116
vt 0.776781 0.659507
vt 0.794324 0.712116
vt 0.933750 0.483473
vt 0.881141 0.308040
vt 0.933750 0.308040
vt 0.881141 0.483473
vt 0.758637 0.712116
vt 0.741094 0.659507
vt 0.758637 0.659507
vt 0.741094 0.712116
vt 0.888190 0.483773
vt 0.905734 0.659207
vt 0.888190 0.659207
vt 0.905734 0.571490
vt 0.940799 0.483773
vt 0.865697 0.677050
vt 0.848154 0.659507
vt 0.865697 0.659507
vt 0.848154 0.677050
vt 0.670170 0.729048
vt 0.652627 0.658874
vt 0.670170 0.658874
vt 0.652627 0.729048
vt 0.883541 0.677050
vt 0.865997 0.659507
vt 0.883541 0.659507
vt 0.865997 0.677050
vt 0.812167 0.659507
vt 0.794624 0.677050
vt 0.794624 0.659507
vt 0.812167 0.677050
vt 0.958643 0.483773
vt 0.941100 0.659207
vt 0.941099 0.483773
vt 0.958643 0.659207
vt 0.901384 0.659507
vt 0.883840 0.677050
vt 0.883840 0.659507
vt 0.901384 0.677050
vt 0.847854 0.677050
vt 0.830311 0.659507
vt 0.847854 0.659507
vt 0.830311 0.677050
vt 0.652327 0.658874
vt 0.634784 0.729048
vt 0.634784 0.658874
vt 0.652327 0.729048
vt 0.830011 0.659507
vt 0.812467 0.677050
vt 0.812467 0.659507
vt 0.830011 0.677050
vt 0.951594 0.308040
vt 0.934050 0.483473
vt 0.934050 0.308040
vt 0.951594 0.395756
vt 0.986659 0.483473
vt 0.740794 0.659507
vt 0.723251 0.712116
vt 0.723251 0.659507
vt 0.740794 0.712116
vt 0.705407 0.308040
vt 0.722951 0.483473
vt 0.705407 0.483473
vt 0.722951 0.465930
vt 0.793124 0.465930
vt 0.722951 0.325583
vt 0.722951 0.308040
vt 0.880841 0.483473
vt 0.793124 0.483473
vt 0.880841 0.308040
vt 0.793124 0.325583
vt 0.793124 0.308040
vt 0.274864 0.754149
vt 0.232615 0.627402
vt 0.274864 0.627402
vt 0.232615 0.754149
vt 0.443422 0.373035
vt 0.485671 0.499782
vt 0.443422 0.499782
vt 0.485671 0.373035
vt 0.400299 0.245851
vt 0.273553 0.372598
vt 0.273553 0.245851
vt 0.400299 0.372598
vt 0.400736 0.372598
vt 0.442985 0.245851
vt 0.442985 0.372598
vt 0.400736 0.245851
vt 0.019186 0.373035
vt 0.145932 0.499782
vt 0.019186 0.499782
vt 0.145932 0.373035
vt 0.189492 0.754149
vt 0.147243 0.627402
vt 0.189492 0.627402
vt 0.147243 0.754149
vt 0.145932 0.500218
vt 0.019186 0.626965
vt 0.019186 0.500218
vt 0.145932 0.626965
vt 0.485671 0.626965
vt 0.443422 0.500218
vt 0.485671 0.500218
vt 0.443422 0.626965
vt 0.061435 0.754149
vt 0.019186 0.627402
vt 0.061435 0.627402
vt 0.019186 0.754149
vt 0.317986 0.754149
vt 0.360235 0.627402
vt 0.360235 0.754149
vt 0.317986 0.627402
vt 0.317549 0.754148
vt 0.275300 0.627402
vt 0.317549 0.627402
vt 0.275300 0.754148
vt 0.146369 0.373035
vt 0.273116 0.499782
vt 0.146369 0.499782
vt 0.273116 0.373035
vt 0.400299 0.373035
vt 0.273553 0.499782
vt 0.273553 0.373035
vt 0.400299 0.499782
vt 0.443422 0.245851
vt 0.485671 0.372598
vt 0.443422 0.372598
vt 0.485671 0.245851
vt 0.104120 0.754149
vt 0.061871 0.627402
vt 0.104120 0.627402
vt 0.061871 0.754149
vt 0.400736 0.626965
vt 0.442985 0.500218
vt 0.442985 0.626965
vt 0.400736 0.500218
vt 0.442985 0.499781
vt 0.400736 0.373035
vt 0.442985 0.373035
vt 0.400736 0.499781
vt 0.145932 0.245851
vt 0.019186 0.372598
vt 0.019186 0.245851
vt 0.145932 0.372598
vt 0.358050 0.500218
vt 0.400299 0.626965
vt 0.358050 0.626965
vt 0.400299 0.500218
vt 0.273116 0.245851
vt 0.146369 0.372598
vt 0.146369 0.245851
vt 0.273116 0.372598
vt 0.146806 0.754149
vt 0.104557 0.627402
vt 0.146806 0.627402
vt 0.104557 0.754149
vt 0.273116 0.500218
vt 0.146369 0.626965
vt 0.146369 0.500218
vt 0.273116 0.626965
vt 0.232178 0.754149
vt 0.189929 0.627402
vt 0.232178 0.627402
vt 0.189929 0.754149
vt 0.315365 0.626965
vt 0.357614 0.500218
vt 0.357614 0.626965
vt 0.315365 0.500218
s 0
usemtl material
f 1/1/1 2/2/1 3/3/1
f 2/2/1 1/1/1 4/4/1
f 5/5/2 6/6/2 7/7/2
f 6/6/2 5/5/2 8/8/2
f 8/8/2 5/5/2 9/9/2
f 8/8/2 9/9/2 10/10/2
f 10/10/2 9/9/2 11/11/2
f 8/8/2 10/10/2 12/12/2
f 13/13/3 14/14/3 15/15/3
f 14/14/3 13/13/3 16/16/3
f 17/17/4 18/18/4 19/19/4
f 18/18/4 17/17/4 20/20/4
f 20/20/4 17/17/4 21/21/4
f 21/21/4 17/17/4 22/22/4
f 20/20/4 21/21/4 23/23/4
f 24/24/4 25/25/4 26/26/4
f 25/25/4 24/24/4 27/27/4
f 28/28/4 29/29/4 30/30/4
f 29/29/4 28/28/4 31/31/4
f 29/29/4 31/31/4 24/24/4
f 24/24/4 31/31/4 32/32/4
f 24/24/4 32/32/4 27/27/4
f 27/27/4 32/32/4 17/17/4
f 17/17/4 32/32/4 22/22/4
f 32/32/4 31/31/4 33/33/4
f 22/22/4 34/34/4 35/35/4
f 34/34/4 22/22/4 32/32/4
f 35/35/4 34/34/4 36/36/4
f 37/37/3 38/38/3 39/39/3
f 38/38/3 37/37/3 40/40/3
f 41/41/5 42/42/5 43/43/5
f 42/42/5 41/41/5 44/44/5
f 44/44/5 41/41/5 45/45/5
f 45/45/5 41/41/5 46/46/5
f 47/47/6 48/48/6 49/49/6
f 48/48/6 47/47/6 50/50/6
f 51/51/1 52/52/1 53/53/1
f 52/52/1 51/51/1 54/54/1
f 55/55/6 56/56/6 57/57/6
f 56/56/6 55/55/6 58/58/6
f 59/59/7 60/60/7 61/61/7
f 60/60/7 59/59/7 62/62/7
f 63/63/7 64/64/7 65/65/7
f 64/64/7 63/63/7 66/66/7
f 67/67/6 68/68/6 69/69/6
f 68/68/6 67/67/6 70/70/6
f 70/70/6 67/67/6 71/71/6
f 72/72/1 73/73/1 74/74/1
f 73/73/1 72/72/1 75/75/1
f 76/76/6 77/77/6 78/78/6
f 77/77/6 76/76/6 79/79/6
f 80/80/7 81/81/7 82/82/7
f 81/81/7 80/80/7 83/83/7
f 84/84/6 85/85/6 86/86/6
f 85/85/6 84/84/6 87/87/6
f 88/88/1 89/89/1 90/90/1
f 89/89/1 88/88/1 91/91/1
f 92/92/3 93/93/3 94/94/3
f 93/93/3 92/92/3 95/95/3
f 96/96/7 97/97/7 98/98/7
f 97/97/7 96/96/7 99/99/7
f 100/100/3 101/101/3 102/102/3
f 101/101/3 100/100/3 103/103/3
f 104/104/1 105/105/1 106/106/1
f 105/105/1 104/104/1 107/107/1
f 108/108/3 109/109/3 110/110/3
f 109/109/3 108/108/3 111/111/3
f 109/109/3 111/111/3 112/112/3
f 113/113/7 114/114/7 115/115/7
f 114/114/7 113/113/7 116/116/7
f 117/117/2 118/118/2 119/119/2
f 118/118/2 117/117/2 120/120/2
f 120/120/2 117/117/2 121/121/2
f 121/121/2 117/117/2 122/122/2
f 122/122/2 117/117/2 123/123/2
f 121/121/2 124/124/2 125/125/2
f 124/124/2 121/121/2 126/126/2
f 126/126/2 121/121/2 127/127/2
f 127/127/2 121/121/2 122/122/2
f 126/126/2 127/127/2 128/128/2
f 129/129/1 130/130/1 131/131/1
f 130/130/1 129/129/1 132/132/1
f 133/133/4 134/134/4 135/135/4
f 134/134/4 133/133/4 136/136/4
f 137/137/6 138/138/6 139/139/6
f 138/138/6 137/137/6 140/140/6
f 141/141/2 142/142/2 143/143/2
f 142/142/2 141/141/2 144/144/2
f 145/145/3 146/146/3 147/147/3
f 146/146/3 145/145/3 148/148/3
f 149/149/7 150/150/7 151/151/7
f 150/150/7 149/149/7 152/152/7
f 153/153/6 154/154/6 155/155/6
f 154/154/6 153/153/6 156/156/6
f 157/157/4 158/158/4 159/159/4
f 158/158/4 157/157/4 160/160/4
f 161/161/7 162/162/7 163/163/7
f 162/162/7 161/161/7 164/164/7
f 165/165/2 166/166/2 167/167/2
f 166/166/2 165/165/2 168/168/2
f 169/169/1 170/170/1 171/171/1
f 170/170/1 169/169/1 172/172/1
f 173/173/3 174/174/3 175/175/3
f 174/174/3 173/173/3 176/176/3
f 177/177/6 178/178/6 179/179/6
f 178/178/6 177/177/6 180/180/6
f 181/181/4 182/182/4 183/183/4
f 182/182/4 181/181/4 184/184/4
f 185/185/7 186/186/7 187/187/7
f 186/186/7 185/185/7 188/188/7
f 189/189/2 190/190/2 191/191/2
f 190/190/2 189/189/2 192/192/2
f 193/193/1 194/194/1 195/195/1
f 194/194/1 193/193/1 196/196/1
f 197/197/3 198/198/3 199/199/3
f 198/198/3 197/197/3 200/200/3
f 201/201/4 202/202/4 203/203/4
f 202/202/4 201/201/4 204/204/4
f 205/205/3 206/206/3 207/207/3
f 206/206/3 205/205/3 208/208/3
f 209/209/7 210/210/7 211/211/7
f 210/210/7 209/209/7 212/212/7
f 213/213/6 214/214/6 215/215/6
f 214/214/6 213/213/6 216/216/6
f 217/217/1 218/218/1 219/219/1
f 218/218/1 217/217/1 220/220/1
f 221/221/2 222/222/2 223/223/2
f 222/222/2 221/221/2 224/224/2
